<?xml version="1.0" encoding="UTF-8" standalone="no"?>
<!DOCTYPE svg PUBLIC "-//W3C//DTD SVG 1.1//EN" "http://www.w3.org/Graphics/SVG/1.1/DTD/svg11.dtd">
<svg width="100%" height="100%" viewBox="0 0 2379 415" version="1.1" xmlns="http://www.w3.org/2000/svg" xmlns:xlink="http://www.w3.org/1999/xlink" xml:space="preserve" xmlns:serif="http://www.serif.com/" style="fill-rule:evenodd;clip-rule:evenodd;stroke-linejoin:round;stroke-miterlimit:2;">
    <g transform="matrix(1,0,0,1,-5640,-1183)">
        <g id="axologo_h_jerry_rgb" transform="matrix(1.9792,0,0,0.425641,5640,1183)">
            <rect x="0" y="0" width="1202" height="975" style="fill:none;"/>
            <g transform="matrix(6.2082,0,0,28.8675,-4671.76,-22306)">
                <path d="M767.44,789.589L758.14,805.697L752.515,805.697C752.515,805.697 761.815,789.589 761.815,789.589C761.815,789.589 752.515,773.481 752.515,773.481L758.14,773.481L767.44,789.589ZM823.24,789.589L832.54,773.481L838.165,773.481C838.165,773.481 828.865,789.589 828.865,789.589C828.865,789.589 838.165,805.697 838.165,805.697L832.54,805.697L823.24,789.589ZM767.44,789.589L776.74,773.481L813.94,773.481L823.24,789.589L813.94,805.697L776.74,805.697L767.44,789.589ZM811.127,778.352L784.597,778.352L779.552,778.352L773.065,789.589L779.552,800.826L804.64,800.826L811.127,800.826L817.615,789.589L811.127,778.352ZM784.946,787.736L787.083,791.438L784.946,795.14L780.671,795.14L778.533,791.438L780.671,787.736L784.946,787.736ZM810.008,787.736L812.146,791.438L810.008,795.14L805.733,795.14L803.596,791.438L805.733,787.736L810.008,787.736ZM859.416,806.477C856.731,806.477 854.501,806.022 852.726,805.113C850.95,804.203 849.63,802.991 848.764,801.475C847.898,799.96 847.465,798.314 847.465,796.539C847.465,793.248 848.72,790.715 851.232,788.94C853.743,787.164 857.164,786.277 861.494,786.277L870.198,786.277L870.198,785.887C870.198,783.072 869.462,780.94 867.989,779.489C866.517,778.039 864.547,777.313 862.079,777.313C859.957,777.313 858.128,777.844 856.59,778.905C855.053,779.965 854.09,781.513 853.7,783.549L848.114,783.549C848.331,781.21 849.121,779.24 850.485,777.638C851.849,776.036 853.548,774.813 855.584,773.968C857.619,773.124 859.784,772.702 862.079,772.702C866.582,772.702 869.97,773.903 872.244,776.306C874.517,778.71 875.654,781.903 875.654,785.887L875.654,805.697L870.782,805.697L870.458,799.917C869.548,801.735 868.217,803.283 866.463,804.561C864.709,805.838 862.36,806.477 859.416,806.477ZM860.26,801.865C862.339,801.865 864.125,801.324 865.619,800.241C867.113,799.159 868.249,797.751 869.029,796.019C869.808,794.287 870.198,792.469 870.198,790.563L870.198,790.498L861.949,790.498C858.745,790.498 856.482,791.051 855.161,792.155C853.841,793.259 853.18,794.634 853.18,796.279C853.18,797.968 853.797,799.321 855.032,800.339C856.266,801.356 858.008,801.865 860.26,801.865ZM929.956,806.477C926.925,806.477 924.197,805.784 921.773,804.398C919.348,803.013 917.432,801.053 916.024,798.52C914.617,795.987 913.913,793.01 913.913,789.589C913.913,786.168 914.628,783.191 916.057,780.658C917.486,778.125 919.423,776.166 921.87,774.78C924.317,773.394 927.055,772.702 930.086,772.702C933.117,772.702 935.845,773.394 938.27,774.78C940.695,776.166 942.611,778.125 944.019,780.658C945.426,783.191 946.13,786.168 946.13,789.589C946.13,793.01 945.415,795.987 943.986,798.52C942.557,801.053 940.619,803.013 938.173,804.398C935.726,805.784 932.988,806.477 929.956,806.477ZM929.956,801.8C931.818,801.8 933.551,801.345 935.153,800.436C936.755,799.527 938.054,798.163 939.05,796.344C940.046,794.525 940.544,792.274 940.544,789.589C940.544,786.904 940.057,784.653 939.082,782.834C938.108,781.015 936.82,779.652 935.218,778.742C933.615,777.833 931.905,777.378 930.086,777.378C928.224,777.378 926.492,777.833 924.89,778.742C923.288,779.652 921.989,781.015 920.993,782.834C919.997,784.653 919.499,786.904 919.499,789.589C919.499,792.274 919.997,794.525 920.993,796.344C921.989,798.163 923.277,799.527 924.858,800.436C926.438,801.345 928.138,801.8 929.956,801.8ZM913.129,805.697L907.504,805.697L898.204,789.589L907.504,773.481L913.129,773.481C913.129,773.481 903.829,789.589 903.829,789.589C903.829,789.589 913.129,805.697 913.129,805.697ZM880.465,805.697C880.465,805.697 889.765,789.589 889.765,789.589C889.765,789.589 880.465,773.481 880.465,773.481L886.09,773.481L895.39,789.589L886.09,805.697L880.465,805.697Z" style="fill:rgb(252,47,98);"/>
            </g>
        </g>
    </g>
</svg>
