<?xml version="1.0" encoding="UTF-8" standalone="no"?>
<!DOCTYPE svg PUBLIC "-//W3C//DTD SVG 1.1//EN" "http://www.w3.org/Graphics/SVG/1.1/DTD/svg11.dtd">
<svg width="100%" height="100%" viewBox="0 0 1103 415" version="1.1" xmlns="http://www.w3.org/2000/svg" xmlns:xlink="http://www.w3.org/1999/xlink" xml:space="preserve" xmlns:serif="http://www.serif.com/" style="fill-rule:evenodd;clip-rule:evenodd;stroke-linejoin:round;stroke-miterlimit:2;">
    <g transform="matrix(1,0,0,1,-1410,-1806)">
        <g id="axologo_i_black_rgb" transform="matrix(0.917637,0,0,0.425641,115.826,1806)">
            <rect x="1410.33" y="0" width="1202" height="975" style="fill:none;"/>
            <clipPath id="_clip1">
                <rect x="1410.33" y="0" width="1202" height="975"/>
            </clipPath>
            <g clip-path="url(#_clip1)">
                <g transform="matrix(3.04788,0,0,6.57283,-17544.9,-1121.82)">
                    <path d="M6287.87,244.844L6245.05,319.013L6219.15,319.013C6219.15,319.013 6261.97,244.844 6261.97,244.844C6261.97,244.844 6219.15,170.675 6219.15,170.675L6245.05,170.675L6287.87,244.844ZM6544.8,244.844L6587.62,170.675L6613.52,170.675C6613.52,170.675 6570.7,244.844 6570.7,244.844C6570.7,244.844 6613.52,319.013 6613.52,319.013L6587.62,319.013L6544.8,244.844ZM6287.87,244.844L6330.69,170.675L6501.98,170.675L6544.8,244.844L6501.98,319.013L6330.69,319.013L6287.87,244.844ZM6489.03,193.105L6366.87,193.105L6343.64,193.105L6313.77,244.844L6343.64,296.583L6459.15,296.583L6489.03,296.583L6518.9,244.844L6489.03,193.105ZM6368.48,236.311L6378.32,253.358L6368.48,270.405L6348.79,270.405L6338.95,253.358L6348.79,236.311L6368.48,236.311ZM6483.88,236.311L6493.72,253.358L6483.88,270.405L6464.19,270.405L6454.35,253.358L6464.19,236.311L6483.88,236.311Z"/>
                </g>
            </g>
        </g>
    </g>
</svg>
