<?xml version="1.0" encoding="UTF-8" standalone="no"?>
<!DOCTYPE svg PUBLIC "-//W3C//DTD SVG 1.1//EN" "http://www.w3.org/Graphics/SVG/1.1/DTD/svg11.dtd">
<svg width="100%" height="100%" viewBox="0 0 1202 975" version="1.1" xmlns="http://www.w3.org/2000/svg" xmlns:xlink="http://www.w3.org/1999/xlink" xml:space="preserve" xmlns:serif="http://www.serif.com/" style="fill-rule:evenodd;clip-rule:evenodd;stroke-linejoin:round;stroke-miterlimit:2;">
    <g transform="matrix(1,0,0,1,-4230,0)">
        <g id="axologo_v_color_rgb" transform="matrix(1,0,0,1,-0.333333,0)">
            <rect x="4230.33" y="0" width="1202" height="975" style="fill:none;"/>
            <g transform="matrix(2.64584,0,0,2.6462,-12145.2,-451.641)">
                <path d="M6368.48,236.311L6378.32,253.358L6368.48,270.405L6348.79,270.405L6338.95,253.358L6348.79,236.311L6368.48,236.311ZM6483.88,236.311L6493.72,253.358L6483.88,270.405L6464.19,270.405L6454.35,253.358L6464.19,236.311L6483.88,236.311Z"/>
            </g>
            <g transform="matrix(2.64584,0,0,2.6462,-12145.2,-451.641)">
                <path d="M6287.87,244.844L6330.69,170.675L6501.98,170.675L6544.8,244.844L6501.98,319.013L6330.69,319.013L6287.87,244.844ZM6489.03,193.105L6366.87,193.105L6343.64,193.105L6313.77,244.844L6343.64,296.583L6459.15,296.583L6489.03,296.583L6518.9,244.844L6489.03,193.105ZM6244.21,539.127C6231.85,539.127 6221.58,537.034 6213.41,532.847C6205.23,528.66 6199.15,523.077 6195.16,516.099C6191.18,509.121 6189.18,501.545 6189.18,493.37C6189.18,478.217 6194.97,466.554 6206.53,458.379C6218.09,450.204 6233.85,446.117 6253.78,446.117L6293.86,446.117L6293.86,444.323C6293.86,431.363 6290.47,421.544 6283.69,414.865C6276.91,408.185 6267.84,404.846 6256.47,404.846C6246.7,404.846 6238.28,407.288 6231.2,412.173C6224.12,417.058 6219.69,424.185 6217.9,433.556L6192.18,433.556C6193.17,422.79 6196.81,413.718 6203.09,406.341C6209.37,398.964 6217.2,393.332 6226.57,389.444C6235.94,385.556 6245.91,383.612 6256.47,383.612C6277.21,383.612 6292.81,389.145 6303.28,400.21C6313.75,411.276 6318.98,425.98 6318.98,444.323L6318.98,535.539L6296.55,535.539L6295.05,508.922C6290.87,517.295 6284.74,524.423 6276.66,530.305C6268.59,536.187 6257.77,539.127 6244.21,539.127ZM6248.1,517.894C6257.67,517.894 6265.9,515.401 6272.77,510.417C6279.65,505.432 6284.89,498.953 6288.48,490.977C6292.06,483.002 6293.86,474.628 6293.86,465.856L6293.86,465.557L6255.88,465.557C6241.12,465.557 6230.7,468.099 6224.62,473.183C6218.54,478.267 6215.5,484.597 6215.5,492.174C6215.5,499.95 6218.34,506.18 6224.03,510.866C6229.71,515.551 6237.73,517.894 6248.1,517.894ZM6569.02,539.127C6555.06,539.127 6542.5,535.937 6531.33,529.557C6520.17,523.177 6511.34,514.155 6504.86,502.492C6498.39,490.828 6495.15,477.121 6495.15,461.37C6495.15,445.619 6498.43,431.911 6505.01,420.248C6511.59,408.584 6520.52,399.562 6531.78,393.182C6543.05,386.802 6555.66,383.612 6569.61,383.612C6583.57,383.612 6596.13,386.802 6607.3,393.182C6618.46,399.562 6627.28,408.584 6633.76,420.248C6640.24,431.911 6643.48,445.619 6643.48,461.37C6643.48,477.121 6640.19,490.828 6633.61,502.492C6627.03,514.155 6618.11,523.177 6606.85,529.557C6595.58,535.937 6582.97,539.127 6569.02,539.127ZM6569.02,517.595C6577.59,517.595 6585.56,515.501 6592.94,511.314C6600.32,507.127 6606.3,500.847 6610.88,492.473C6615.47,484.099 6617.76,473.731 6617.76,461.37C6617.76,449.008 6615.52,438.64 6611.03,430.267C6606.55,421.893 6600.62,415.612 6593.24,411.425C6585.86,407.238 6577.99,405.145 6569.61,405.145C6561.04,405.145 6553.06,407.238 6545.69,411.425C6538.31,415.612 6532.33,421.893 6527.74,430.267C6523.16,438.64 6520.86,449.008 6520.86,461.37C6520.86,473.731 6523.16,484.099 6527.74,492.473C6532.33,500.847 6538.26,507.127 6545.54,511.314C6552.82,515.501 6560.64,517.595 6569.02,517.595ZM6491.53,535.539L6465.64,535.539L6422.81,461.37L6465.64,387.201L6491.53,387.201C6491.53,387.201 6448.71,461.37 6448.71,461.37C6448.71,461.37 6491.53,535.539 6491.53,535.539ZM6341.13,535.539C6341.13,535.539 6383.95,461.37 6383.95,461.37C6383.95,461.37 6341.13,387.201 6341.13,387.201L6367.03,387.201L6409.85,461.37L6367.03,535.539L6341.13,535.539Z" style="fill:rgb(252,47,98);"/>
            </g>
            <g transform="matrix(2.64584,0,0,2.6462,-12145.2,-451.641)">
                <path d="M6287.87,244.844L6245.05,319.013L6219.15,319.013C6219.15,319.013 6261.97,244.844 6261.97,244.844C6261.97,244.844 6219.15,170.675 6219.15,170.675L6245.05,170.675L6287.87,244.844ZM6544.8,244.844L6587.62,170.675L6613.52,170.675C6613.52,170.675 6570.7,244.844 6570.7,244.844C6570.7,244.844 6613.52,319.013 6613.52,319.013L6587.62,319.013L6544.8,244.844Z" style="fill:rgb(253,136,137);"/>
            </g>
        </g>
    </g>
</svg>
